PathFileType	4	(X/Y/Z)	C:\Users\Public\Documents\Vicon Data\AADs Machine\Fixing_spring_distance_56\90_lb_Spring\Brian_90_01.trc
DataRate	CameraRate	NumFrames	NumMarkers	Units	OrigDataRate	OrigDataStartFrame	OrigNumFrames
100.0	100.0	45	8	mm	100.0	814	1302	
Frame#	Time	SpringTop			MMAL			LMAL			Shank			Heel			Foot			Toe			MP5			
		X1	Y1	Z1	X2	Y2	Z2	X3	Y3	Z3	X4	Y4	Z4	X5	Y5	Z5	X6	Y6	Z6	X7	Y7	Z7	X8	Y8	Z8	
814	8.13	-341.36246	162.16318	-613.81146	-288.38504	102.91483	-675.18475	-271.79715	110.6478	-550.10736	-169.8902	250.62343	-619.98608	-355.46274	88.416206	-608.79315	-178.99823	57.306385	-613.76489	-104.72924	37.5816	-629.46655	-164.86801	39.085243	-561.69366
815	8.14	-341.78375	162.00343	-613.90857	-288.41675	102.78006	-675.18335	-271.84528	110.66077	-550.11877	-170.3528	250.90092	-620.0481	-355.47479	88.258347	-608.70563	-179.02289	57.288055	-613.77222	-104.74419	37.62664	-629.50745	-164.84692	39.071285	-561.70526
816	8.15	-341.97522	161.86217	-613.8075	-288.46558	102.74345	-675.14575	-271.87347	110.62379	-550.09271	-170.89749	251.15886	-620.06232	-355.43872	88.123131	-608.57983	-179.02739	57.335258	-613.76611	-104.78928	37.653267	-629.49335	-164.88161	39.139019	-561.70569
817	8.16	-342.16983	161.7225	-613.81427	-288.50311	102.7495	-675.15997	-271.91614	110.5555	-550.10016	-171.25359	251.36378	-620.09637	-355.47345	88.060814	-608.53369	-179.06021	57.343018	-613.77362	-104.79906	37.670063	-629.49658	-164.88683	39.152164	-561.69
818	8.17	-342.27249	161.51625	-613.84534	-288.36246	102.41801	-674.87445	-271.93893	110.46714	-550.11389	-171.5843	251.56934	-620.14832	-355.51578	88.015762	-608.6095	-179.07047	57.324638	-613.78705	-104.80727	37.646988	-629.49933	-164.87645	39.095295	-561.73444
819	8.18	-342.41132	161.42264	-613.83722	-288.37524	102.45158	-674.89325	-271.952	110.47947	-550.11066	-171.93851	251.82104	-620.21375	-355.51825	88.022575	-608.59937	-179.05865	57.347713	-613.79578	-104.78928	37.660507	-629.5097	-164.88831	39.126423	-561.71802
820	8.19	-342.51733	161.37334	-613.80414	-288.39267	102.46057	-674.89093	-271.94821	110.44827	-550.11188	-172.22263	252.03539	-620.27448	-355.4809	88.026588	-608.59894	-179.07217	57.345787	-613.78333	-104.80222	37.665356	-629.49213	-164.91051	39.13409	-561.70752
821	8.2	-342.63922	161.24086	-613.84839	-288.37921	102.44648	-674.89685	-271.88586	110.56808	-550.20575	-172.53496	252.1554	-620.38702	-355.5256	88.017418	-608.64508	-179.07837	57.353607	-613.80109	-104.80009	37.680382	-629.52124	-164.86279	39.111069	-561.72943
822	8.21	-342.69818	161.16621	-613.78912	-288.39636	102.42524	-674.89941	-271.87631	110.59568	-550.21417	-172.79874	252.29716	-620.47656	-355.51205	88.049294	-608.64783	-179.07248	57.367344	-613.8075	-104.78896	37.657494	-629.53143	-164.87738	39.122738	-561.74335
823	8.22	-342.71463	161.0687	-613.81415	-288.39825	102.47298	-674.89612	-271.86856	110.56348	-550.21802	-173.01707	252.46361	-620.50397	-355.49985	88.028679	-608.58722	-179.09329	57.361504	-613.79926	-104.76283	37.645943	-629.51202	-164.8974	39.154484	-561.70612
824	8.23	-342.76855	161.00037	-613.88672	-288.34384	102.44597	-674.90033	-271.84744	110.56188	-550.25043	-173.24622	252.59105	-620.63458	-355.51172	88.039986	-608.65082	-179.05789	57.379124	-613.82935	-104.7785	37.660061	-629.53772	-164.88222	39.15028	-561.7309
825	8.24	-342.90103	160.95586	-613.86511	-288.36938	102.45142	-674.90771	-271.85947	110.55623	-550.27673	-173.47346	252.75487	-620.74884	-355.51578	88.032669	-608.66327	-179.08566	57.389172	-613.83221	-104.80561	37.64595	-629.54321	-164.86079	39.150394	-561.75012
826	8.25	-342.97757	160.87984	-613.83691	-288.3515	102.4492	-674.91473	-271.85544	110.55628	-550.27594	-173.67078	252.92957	-620.80597	-355.50558	88.048401	-608.66748	-179.07381	57.385101	-613.82306	-104.78657	37.660053	-629.53961	-164.89256	39.145889	-561.72943
827	8.26	-343.10934	160.79134	-613.78021	-288.37033	102.49568	-674.92969	-271.8378	110.52988	-550.30157	-173.84978	253.12202	-620.84552	-355.51517	88.028954	-608.66315	-179.06609	57.381008	-613.82678	-104.79742	37.661709	-629.52551	-164.86691	39.157593	-561.71368
828	8.27	-343.10214	160.64301	-613.75647	-288.37729	102.47841	-674.90808	-271.88113	110.52528	-550.30341	-174.08546	253.27766	-620.86615	-355.53006	88.049149	-608.68292	-179.07224	57.40617	-613.82318	-104.80323	37.636021	-629.547	-164.85492	39.151447	-561.7475
829	8.28	-343.09692	160.51276	-613.74945	-288.37354	102.47158	-674.88751	-271.85617	110.53757	-550.30859	-174.3013	253.45123	-620.88031	-355.49966	88.063927	-608.6582	-179.07179	57.419746	-613.82031	-104.79109	37.677845	-629.54431	-164.87231	39.182384	-561.72974
830	8.29	-343.14731	160.42416	-613.66302	-288.35742	102.51984	-674.87927	-271.88141	110.50196	-550.31482	-174.52728	253.6138	-620.83801	-355.51395	87.988319	-608.63855	-179.07083	57.4086	-613.79932	-104.7718	37.657932	-629.52734	-164.85602	39.149685	-561.72394
831	8.3	-343.284	160.28951	-613.61169	-288.36783	102.52684	-674.84882	-271.89084	110.49454	-550.33722	-174.76892	253.77649	-620.83319	-355.53076	87.989281	-608.65753	-179.06648	57.414982	-613.81207	-104.78331	37.659985	-629.55896	-164.85818	39.153709	-561.74792
832	8.31	-343.37387	160.22751	-613.60156	-288.41525	102.68446	-674.95068	-271.91409	110.51166	-550.34119	-175.034	253.94658	-620.84332	-355.55994	88.018242	-608.65692	-179.06844	57.433277	-613.8186	-104.79581	37.681229	-629.54602	-164.86789	39.149261	-561.75165
833	8.32	-343.44342	160.15855	-613.52118	-288.40826	102.71665	-674.90002	-271.9191	110.49529	-550.31885	-175.24083	254.1315	-620.82111	-355.54071	87.9869	-608.63892	-179.07237	57.432159	-613.78448	-104.80538	37.684944	-629.52618	-164.87552	39.171913	-561.72882
834	8.33	-343.58554	160.10976	-613.44025	-288.40311	102.69661	-674.89221	-271.89249	110.50705	-550.31531	-175.46967	254.32187	-620.81696	-355.53128	87.955681	-608.5899	-179.07198	57.440434	-613.77936	-104.76807	37.694859	-629.521	-164.88266	39.14896	-561.72101
835	8.34	-343.67197	159.95699	-613.40607	-288.42294	102.69911	-674.89569	-271.89468	110.50587	-550.35071	-175.73743	254.52695	-620.78656	-355.56775	87.968834	-608.64453	-179.08664	57.428375	-613.80847	-104.78026	37.668297	-629.53125	-164.88289	39.151394	-561.72687
836	8.35	-343.79788	159.96056	-613.40607	-288.41336	102.72295	-674.86261	-271.90024	110.52076	-550.36029	-175.97716	254.71922	-620.78406	-355.5553	87.963341	-608.61761	-179.0659	57.460808	-613.79205	-104.78801	37.698231	-629.52826	-164.88373	39.166687	-561.71844
837	8.36	-343.96225	159.92909	-613.3291	-288.40274	102.75307	-674.84924	-271.92166	110.51146	-550.3429	-176.17357	254.88428	-620.77087	-355.52374	87.907089	-608.55737	-179.07687	57.443909	-613.76611	-104.8036	37.700367	-629.48694	-164.88344	39.178585	-561.70587
838	8.37	-344.04843	159.80585	-613.39532	-288.33453	102.52009	-674.70557	-271.93939	110.51422	-550.36639	-176.38409	254.99757	-620.80011	-355.58884	87.908356	-608.57928	-179.09082	57.450214	-613.7663	-104.79928	37.690273	-629.51691	-164.88477	39.137341	-561.73273
839	8.38	-344.12268	159.73779	-613.40656	-288.37329	102.57547	-674.71271	-271.93433	110.49281	-550.37921	-176.62041	255.15009	-620.82434	-355.61133	87.927109	-608.6366	-179.08377	57.468822	-613.77454	-104.811	37.701466	-629.51361	-164.89424	39.152847	-561.70477
840	8.39	-344.23001	159.72253	-613.27917	-288.35065	102.57682	-674.63257	-271.94431	110.48468	-550.3689	-176.76361	255.26735	-620.80829	-355.58667	87.903435	-608.5188	-179.09467	57.470066	-613.7384	-104.81135	37.735985	-629.48169	-164.88939	39.17342	-561.69006
841	8.4	-344.24481	159.5808	-613.33997	-288.35065	102.59927	-674.67694	-271.92737	110.48759	-550.36969	-176.93559	255.37009	-620.85547	-355.58975	87.868431	-608.58636	-179.07625	57.454021	-613.76404	-104.79714	37.715679	-629.49335	-164.87909	39.1357	-561.69824
842	8.41	-344.38419	159.55225	-613.26239	-288.36688	102.5242	-674.65411	-271.94373	110.53084	-550.38605	-177.10988	255.48581	-620.89264	-355.64331	87.866859	-608.60126	-179.10034	57.456612	-613.77148	-104.79689	37.705597	-629.5094	-164.86446	39.119431	-561.70593
843	8.42	-344.39145	159.48631	-613.2901	-288.36124	102.59304	-674.65485	-271.91098	110.5451	-550.42139	-177.26938	255.58034	-620.91553	-355.65375	87.856819	-608.57379	-179.08942	57.460667	-613.75659	-104.79301	37.732788	-629.49463	-164.89111	39.167923	-561.69312
844	8.43	-344.41858	159.41295	-613.25342	-288.40033	102.60815	-674.65747	-271.88266	110.52626	-550.44855	-177.41107	255.67543	-620.95752	-355.61819	87.870071	-608.58203	-179.06841	57.465714	-613.75293	-104.78487	37.721561	-629.4964	-164.88588	39.173538	-561.7019
845	8.44	-344.45618	159.31546	-613.32922	-288.3732	102.52913	-674.66248	-271.91098	110.533	-550.47064	-177.61615	255.75713	-621.02319	-355.63858	87.840363	-608.59302	-179.09085	57.43681	-613.77734	-104.78419	37.689819	-629.53241	-164.87445	39.138737	-561.71997
846	8.45	-344.55774	159.29953	-613.26227	-288.38406	102.5238	-674.65576	-271.88107	110.56494	-550.49591	-177.77579	255.88614	-621.08624	-355.62851	87.850441	-608.61224	-179.07465	57.471008	-613.77588	-104.78673	37.712269	-629.52271	-164.87636	39.152443	-561.71973
847	8.46	-344.57642	159.23936	-613.22198	-288.36539	102.56966	-674.66705	-271.86029	110.5672	-550.51044	-177.98265	255.97626	-621.11298	-355.61975	87.833229	-608.5769	-179.08464	57.436592	-613.76385	-104.78474	37.726971	-629.50806	-164.87263	39.172066	-561.69275
848	8.47	-344.65738	159.13954	-613.3017	-288.38379	102.57707	-674.69409	-271.88654	110.57344	-550.5459	-178.24852	256.07263	-621.20502	-355.66284	87.810051	-608.58716	-179.10338	57.435921	-613.78314	-104.82189	37.71405	-629.51605	-164.85576	39.157806	-561.72241
849	8.48	-344.72568	159.07558	-613.28339	-288.39215	102.47842	-674.67145	-271.82831	110.64922	-550.57294	-178.44104	256.1817	-621.28003	-355.65842	87.844635	-608.65332	-179.09186	57.444309	-613.78778	-104.8181	37.712234	-629.53333	-164.88383	39.14423	-561.72418
850	8.49	-344.73447	158.97656	-613.26776	-288.40454	102.491	-674.6861	-271.81314	110.6356	-550.60052	-178.59845	256.30344	-621.33215	-355.64386	87.78714	-608.61298	-179.10115	57.449986	-613.79993	-104.79886	37.737045	-629.54504	-164.87767	39.176071	-561.72528
851	8.5	-344.81244	158.87863	-613.25	-288.41022	102.53613	-674.69604	-271.80673	110.6543	-550.6391	-178.75087	256.40094	-621.3985	-355.6539	87.779419	-608.61401	-179.09538	57.446968	-613.80609	-104.83166	37.728844	-629.54681	-164.86821	39.181854	-561.74341
852	8.51	-344.86569	158.79358	-613.33191	-288.40067	102.46352	-674.71222	-271.81793	110.63108	-550.64752	-178.99947	256.51849	-621.48694	-355.68954	87.745796	-608.69232	-179.12054	57.428928	-613.8255	-104.81651	37.728477	-629.56171	-164.8868	39.148682	-561.75446
853	8.52	-344.97592	158.74539	-613.30664	-288.42441	102.47096	-674.71796	-271.81689	110.63398	-550.67572	-179.19853	256.70303	-621.5321	-355.68533	87.773048	-608.66119	-179.10953	57.446388	-613.82635	-104.79592	37.734299	-629.59113	-164.90497	39.168468	-561.75354
854	8.53	-344.9924	158.64178	-613.28845	-288.40701	102.47625	-674.72614	-271.80063	110.65788	-550.68567	-179.33797	256.83795	-621.61206	-355.68878	87.748413	-608.60608	-179.1133	57.431427	-613.82233	-104.81015	37.74379	-629.56287	-164.87172	39.185287	-561.73358
855	8.54	-345.06805	158.58659	-613.3432	-288.45197	102.43929	-674.72614	-271.82025	110.67585	-550.72821	-179.56802	256.99997	-621.69995	-355.72241	87.744881	-608.64569	-179.12524	57.433071	-613.82648	-104.83136	37.719208	-629.56342	-164.87926	39.201645	-561.76624
856	8.55	-344.99567	158.47693	-612.75067	-288.44891	102.36514	-674.74414	-271.79343	110.70477	-550.75421	-179.77916	257.10028	-621.83545	-355.72736	87.720894	-608.72388	-179.12381	57.439396	-613.84705	-104.81859	37.704208	-629.59552	-164.88506	39.182858	-561.79413
857	8.56	-345.04321	158.42873	-612.69836	-288.43042	102.40377	-674.77747	-271.79105	110.67422	-550.78882	-179.93657	257.21729	-621.89532	-355.73645	87.671844	-608.67706	-179.13148	57.422554	-613.82825	-104.81624	37.702499	-629.56604	-164.9088	39.211742	-561.75879
858	8.57	-345.0842	158.35028	-612.74536	-288.52744	102.5955	-674.92108	-271.80029	110.70031	-550.80164	-180.18379	257.35321	-621.98962	-355.72623	87.685966	-608.65271	-179.12202	57.444111	-613.85596	-104.83249	37.732918	-629.586	-164.87143	39.224365	-561.79395
